<svg id="Komponente_25_1" data-name="Komponente 25 – 1" xmlns="http://www.w3.org/2000/svg" width="235" height="235" viewBox="0 0 235 235">
  <path id="Pfad_43" data-name="Pfad 43" d="M24,0H211a24,24,0,0,1,24,24V211a24,24,0,0,1-24,24H24A24,24,0,0,1,0,211V24A24,24,0,0,1,24,0Z" fill="#0f4057"/>
  <path id="Pfad_44" data-name="Pfad 44" d="M103.842-21.546a13.2,13.2,0,0,1,3.564,8.91A12.975,12.975,0,0,1,103.113-3a13.57,13.57,0,0,1-9.639,4.131,12.726,12.726,0,0,1-9.882-4.86L55.728-37.1,27.378-3.726q-4.212,4.86-9.72,4.86A13.444,13.444,0,0,1,8.019-3.078,13.233,13.233,0,0,1,3.726-12.8a13.347,13.347,0,0,1,3.4-8.748l31.1-35.964L7.938-92.664a13.425,13.425,0,0,1-3.564-8.748,12.975,12.975,0,0,1,4.293-9.639,13.748,13.748,0,0,1,9.8-4.131,12.726,12.726,0,0,1,9.882,4.86l27.378,32.4,27.216-32.4a11.819,11.819,0,0,1,9.558-4.86,13.748,13.748,0,0,1,9.8,4.131,12.975,12.975,0,0,1,4.293,9.639,13.347,13.347,0,0,1-3.4,8.748L72.9-57.51Z" transform="translate(58.915 150.101)" fill="#fff"/>
  <path id="Pfad_8" data-name="Pfad 8" d="M112.414-83.453A11.141,11.141,0,0,1,103.5-87.3q-3.3-3.848-3.3-10.233t3.3-10.151a11.252,11.252,0,0,1,8.911-3.766c.073,0,122.589,0,122.918.007a11.073,11.073,0,0,1,8.373,3.758q3.365,3.766,3.365,10.151t-3.3,10.233a12.039,12.039,0,0,1-8.435,3.847C235.213-83.442,112.806-83.453,112.414-83.453Z" transform="translate(-57 289.622)" fill="#dbf417"/>
</svg>
